<?xml version="1.0" encoding="utf-8"?>
<!-- Generator: Adobe Illustrator 24.0.0, SVG Export Plug-In . SVG Version: 6.00 Build 0)  -->
<svg version="1.1" id="Шар_1" xmlns="http://www.w3.org/2000/svg" xmlns:xlink="http://www.w3.org/1999/xlink" x="0px" y="0px"
	 viewBox="0 0 512 512" style="enable-background:new 0 0 512 512;" xml:space="preserve">
<style type="text/css">
	.st0{fill:none;}
	.st1{fill:#FFFFFF;}
	.st2{font-family:'RobotoMono-Regular';}
	.st3{font-size:40.1534px;}
</style>
<g>
	<rect class="st0" width="512" height="512"/>
	<rect class="st0" width="512" height="512"/>
</g>
<g>
	<path d="M458.7,234.7c6,0,10.7-4.7,10.7-10.7v-26.5c0-3.4-1.7-6.8-4.5-8.7L268.2,51.2c-7.3-5.1-17.1-5.1-24.5,0L47.1,188.8
		c-2.8,1.9-4.5,5.3-4.5,8.7V224c0,6,4.7,10.7,10.7,10.7h32v192H64c-11.7,0-21.3,9.6-21.3,21.3s9.6,21.3,21.3,21.3h384
		c11.7,0,21.3-9.6,21.3-21.3s-9.6-21.3-21.3-21.3h-21.3v-192H458.7z M341.3,362.7c0,11.7-9.6,21.3-21.3,21.3s-21.3-9.6-21.3-21.3
		v-64l-25,37.3c-8.5,12.6-27.1,12.6-35.4,0l-25-37.3v64c0,11.7-9.6,21.3-21.3,21.3s-21.3-9.6-21.3-21.3V262.4
		c0-15.4,12.4-27.7,27.7-27.7l0,0c9.2,0,17.9,4.7,23,12.4l34.6,51.6l34.3-51.6c5.3-7.7,13.9-12.4,23.3-12.4l0,0
		c15.4,0,27.7,12.4,27.7,27.7V362.7z"/>
</g>
<text transform="matrix(1 0 0 1 99.376 456.9219)" class="st1 st2 st3">Museum helper</text>
</svg>
